<svg width="144" height="144" viewBox="0 0 144 144" fill="none" xmlns="http://www.w3.org/2000/svg">
<g filter="url(#filter0_d)">
<circle cx="72" cy="68" r="68" fill="#CCA088"/>
</g>
<g filter="url(#filter1_bdf)">
<rect x="26" y="21" width="93" height="95" fill="#D5A980"/>
</g>
<path d="M31.9595 81.264C30.0895 81.264 28.8025 80.648 28.0985 79.416C27.4165 78.162 27.0755 76.38 27.0755 74.07C27.0755 72.178 27.3175 70.726 27.8015 69.714C28.3075 68.702 29.0005 67.965 29.8805 67.503C30.7605 67.019 32.1025 66.491 33.9065 65.919L35.4905 65.391V65.325V62.916C35.4905 62.278 35.3585 61.794 35.0945 61.464C34.8525 61.112 34.5555 60.936 34.2035 60.936C33.8955 60.936 33.6205 61.079 33.3785 61.365C33.1585 61.651 33.0485 62.036 33.0485 62.52V63.972H27.4385V63.18C27.4385 60.804 27.9885 59.11 29.0885 58.098C30.2105 57.086 32.0255 56.58 34.5335 56.58C36.5355 56.58 38.1635 57.108 39.4175 58.164C40.6715 59.198 41.2985 60.672 41.2985 62.586V81H35.5565V78.129C35.2705 79.119 34.8085 79.889 34.1705 80.439C33.5545 80.989 32.8175 81.264 31.9595 81.264ZM34.2365 76.776C34.6765 76.776 34.9845 76.6 35.1605 76.248C35.3585 75.874 35.4575 75.423 35.4575 74.895V68.163C34.5995 68.493 33.9615 68.911 33.5435 69.417C33.1475 69.923 32.9495 70.627 32.9495 71.529V74.631C32.9495 76.061 33.3785 76.776 34.2365 76.776ZM43.5227 56.844H49.3967V58.131C50.2327 57.097 51.3877 56.58 52.8617 56.58C54.7317 56.58 56.0297 57.207 56.7557 58.461C57.5037 59.715 57.8777 61.453 57.8777 63.675V72.618C57.8777 74.51 57.7677 76.061 57.5477 77.271C57.3277 78.459 56.8437 79.427 56.0957 80.175C55.3477 80.901 54.2147 81.264 52.6967 81.264C51.2447 81.264 50.1447 80.857 49.3967 80.043V85.818H43.5227V56.844ZM50.7827 76.776C51.3107 76.776 51.6517 76.534 51.8057 76.05C51.9597 75.566 52.0367 74.862 52.0367 73.938V63.675C52.0367 62.839 51.9597 62.201 51.8057 61.761C51.6517 61.321 51.2997 61.101 50.7497 61.101C49.8477 61.101 49.3967 61.937 49.3967 63.609V74.202C49.3967 75.016 49.4847 75.654 49.6607 76.116C49.8587 76.556 50.2327 76.776 50.7827 76.776ZM65.0057 81.264C63.4877 81.264 62.4427 80.945 61.8707 80.307C61.2987 79.669 61.0127 78.646 61.0127 77.238V62.157H59.3957V57.768H61.0127V52.653H66.6227V57.768H68.2727V62.157H66.6227V75.72C66.6227 76.138 66.6557 76.446 66.7217 76.644C66.7877 76.842 66.9637 76.941 67.2497 76.941C67.4697 76.941 67.6787 76.93 67.8767 76.908C68.0747 76.886 68.2067 76.875 68.2727 76.875V80.835C67.9427 80.923 67.4587 81.011 66.8207 81.099C66.2047 81.209 65.5997 81.264 65.0057 81.264ZM70.0774 56.844H75.9514V58.131C76.7874 57.097 77.9424 56.58 79.4164 56.58C81.2864 56.58 82.5844 57.207 83.3104 58.461C84.0584 59.715 84.4324 61.453 84.4324 63.675V72.618C84.4324 74.51 84.3224 76.061 84.1024 77.271C83.8824 78.459 83.3984 79.427 82.6504 80.175C81.9024 80.901 80.7694 81.264 79.2514 81.264C77.7994 81.264 76.6994 80.857 75.9514 80.043V85.818H70.0774V56.844ZM77.3374 76.776C77.8654 76.776 78.2064 76.534 78.3604 76.05C78.5144 75.566 78.5914 74.862 78.5914 73.938V63.675C78.5914 62.839 78.5144 62.201 78.3604 61.761C78.2064 61.321 77.8544 61.101 77.3044 61.101C76.4024 61.101 75.9514 61.937 75.9514 63.609V74.202C75.9514 75.016 76.0394 75.654 76.2154 76.116C76.4134 76.556 76.7874 76.776 77.3374 76.776ZM90.9664 81.264C89.0964 81.264 87.8094 80.648 87.1054 79.416C86.4234 78.162 86.0824 76.38 86.0824 74.07C86.0824 72.178 86.3244 70.726 86.8084 69.714C87.3144 68.702 88.0074 67.965 88.8874 67.503C89.7674 67.019 91.1094 66.491 92.9134 65.919L94.4974 65.391V65.325V62.916C94.4974 62.278 94.3654 61.794 94.1014 61.464C93.8594 61.112 93.5624 60.936 93.2104 60.936C92.9024 60.936 92.6274 61.079 92.3854 61.365C92.1654 61.651 92.0554 62.036 92.0554 62.52V63.972H86.4454V63.18C86.4454 60.804 86.9954 59.11 88.0954 58.098C89.2174 57.086 91.0324 56.58 93.5404 56.58C95.5424 56.58 97.1704 57.108 98.4244 58.164C99.6784 59.198 100.305 60.672 100.305 62.586V81H94.5634V78.129C94.2774 79.119 93.8154 79.889 93.1774 80.439C92.5614 80.989 91.8244 81.264 90.9664 81.264ZM93.2434 76.776C93.6834 76.776 93.9914 76.6 94.1674 76.248C94.3654 75.874 94.4644 75.423 94.4644 74.895V68.163C93.6064 68.493 92.9684 68.911 92.5504 69.417C92.1544 69.923 91.9564 70.627 91.9564 71.529V74.631C91.9564 76.061 92.3854 76.776 93.2434 76.776ZM109.79 81.264C107.15 81.264 105.247 80.593 104.081 79.251C102.915 77.909 102.332 75.852 102.332 73.08V65.622C102.332 63.532 102.552 61.838 102.992 60.54C103.454 59.22 104.213 58.23 105.269 57.57C106.347 56.91 107.832 56.58 109.724 56.58C111.792 56.58 113.475 57.119 114.773 58.197C116.071 59.275 116.72 60.782 116.72 62.718V66.414H110.846V63.015C110.846 62.377 110.758 61.893 110.582 61.563C110.406 61.211 110.065 61.035 109.559 61.035C108.613 61.035 108.14 61.706 108.14 63.048V74.763C108.14 75.313 108.25 75.786 108.47 76.182C108.712 76.556 109.064 76.743 109.526 76.743C109.988 76.743 110.329 76.556 110.549 76.182C110.791 75.808 110.901 75.324 110.879 74.73L110.846 70.671H116.72V74.895C116.72 76.875 116.071 78.437 114.773 79.581C113.497 80.703 111.836 81.264 109.79 81.264Z" fill="black"/>
<defs>
<filter id="filter0_d" x="0" y="0" width="144" height="144" filterUnits="userSpaceOnUse" color-interpolation-filters="sRGB">
<feFlood flood-opacity="0" result="BackgroundImageFix"/>
<feColorMatrix in="SourceAlpha" type="matrix" values="0 0 0 0 0 0 0 0 0 0 0 0 0 0 0 0 0 0 127 0"/>
<feOffset dy="4"/>
<feGaussianBlur stdDeviation="2"/>
<feColorMatrix type="matrix" values="0 0 0 0 0 0 0 0 0 0 0 0 0 0 0 0 0 0 0.25 0"/>
<feBlend mode="normal" in2="BackgroundImageFix" result="effect1_dropShadow"/>
<feBlend mode="normal" in="SourceGraphic" in2="effect1_dropShadow" result="shape"/>
</filter>
<filter id="filter1_bdf" x="22" y="17" width="101" height="107" filterUnits="userSpaceOnUse" color-interpolation-filters="sRGB">
<feFlood flood-opacity="0" result="BackgroundImageFix"/>
<feGaussianBlur in="BackgroundImage" stdDeviation="2"/>
<feComposite in2="SourceAlpha" operator="in" result="effect1_backgroundBlur"/>
<feColorMatrix in="SourceAlpha" type="matrix" values="0 0 0 0 0 0 0 0 0 0 0 0 0 0 0 0 0 0 127 0"/>
<feOffset dy="4"/>
<feGaussianBlur stdDeviation="2"/>
<feColorMatrix type="matrix" values="0 0 0 0 0 0 0 0 0 0 0 0 0 0 0 0 0 0 0.25 0"/>
<feBlend mode="normal" in2="effect1_backgroundBlur" result="effect2_dropShadow"/>
<feBlend mode="normal" in="SourceGraphic" in2="effect2_dropShadow" result="shape"/>
<feGaussianBlur stdDeviation="2" result="effect3_foregroundBlur"/>
</filter>
</defs>
</svg>
